<?xml version="1.0" encoding="UTF-8"?>
<svg width="200" height="200" viewBox="0 0 200 200" fill="none" xmlns="http://www.w3.org/2000/svg">
  <!-- Background circle with gradient -->
  <circle cx="100" cy="100" r="90" fill="url(#paint0_linear)" />
  
  <!-- Film strip elements -->
  <path d="M70 40H130C138.284 40 145 46.7157 145 55V145C145 153.284 138.284 160 130 160H70C61.7157 160 55 153.284 55 145V55C55 46.7157 61.7157 40 70 40Z" fill="#0A0E1A" stroke="#3B82F6" stroke-width="3"/>
  
  <!-- Film perforations -->
  <circle cx="70" cy="55" r="5" fill="#3B82F6"/>
  <circle cx="70" cy="85" r="5" fill="#3B82F6"/>
  <circle cx="70" cy="115" r="5" fill="#3B82F6"/>
  <circle cx="70" cy="145" r="5" fill="#3B82F6"/>
  
  <circle cx="130" cy="55" r="5" fill="#3B82F6"/>
  <circle cx="130" cy="85" r="5" fill="#3B82F6"/>
  <circle cx="130" cy="115" r="5" fill="#3B82F6"/>
  <circle cx="130" cy="145" r="5" fill="#3B82F6"/>
  
  <!-- Play button -->
  <path d="M115 100L90 115V85L115 100Z" fill="#3B82F6"/>
  
  <!-- Text "My" part -->
  <path d="M73.5581 111V89H79.1581L84.5581 102.6L89.9581 89H95.5581V111H91.1581V96.4L86.3581 108.2H82.7581L77.9581 96.4V111H73.5581Z" fill="white"/>
  <path d="M99.1328 111V89H107.333C109.533 89 111.333 89.4 112.733 90.2C114.133 91 115.133 92.1 115.733 93.5C116.333 94.9 116.633 96.5 116.633 98.3V101.7C116.633 103.5 116.333 105.1 115.733 106.5C115.133 107.9 114.133 109 112.733 109.8C111.333 110.6 109.533 111 107.333 111H99.1328ZM103.533 92.4V107.6H107.333C109.033 107.6 110.333 107.1 111.233 106.1C112.133 105.1 112.633 103.7 112.633 101.9V98.1C112.633 96.3 112.133 94.9 111.233 93.9C110.333 92.9 109.033 92.4 107.333 92.4H103.533Z" fill="#3B82F6"/>
  
  <!-- Text "Phim" part, slightly smaller -->
  <path d="M76.0498 129V117H81.0498C82.2498 117 83.2498 117.2 84.0498 117.6C84.8498 118 85.4498 118.5 85.8498 119.2C86.2498 119.9 86.4498 120.7 86.4498 121.5C86.4498 122.3 86.2498 123.1 85.8498 123.8C85.4498 124.5 84.8498 125 84.0498 125.4C83.2498 125.8 82.2498 126 81.0498 126H77.8498V129H76.0498ZM77.8498 124.4H81.0498C82.1498 124.4 82.9498 124.2 83.4498 123.7C83.9498 123.2 84.2498 122.5 84.2498 121.6C84.2498 120.7 83.9498 120 83.4498 119.5C82.9498 119 82.1498 118.7 81.0498 118.7H77.8498V124.4Z" fill="white"/>
  <path d="M92.6523 129.1C91.4523 129.1 90.3523 128.8 89.4523 128.2C88.5523 127.6 87.8523 126.8 87.3523 125.7C86.8523 124.6 86.6523 123.4 86.6523 122.1V121.8C86.6523 120.5 86.8523 119.3 87.2523 118.2C87.6523 117.1 88.3523 116.3 89.1523 115.7C90.0523 115.1 91.0523 114.8 92.2523 114.8C93.4523 114.8 94.4523 115.1 95.2523 115.6C96.0523 116.1 96.6523 116.8 97.0523 117.8C97.4523 118.8 97.6523 119.9 97.6523 121.2V122.1H88.4523C88.5523 123.4 88.9523 124.4 89.6523 125.1C90.3523 125.8 91.2523 126.2 92.2523 126.2C92.9523 126.2 93.5523 126.1 94.0523 125.8C94.5523 125.5 94.9523 125.2 95.3523 124.7L97.3523 126.1C96.3523 128.1 94.7523 129.1 92.6523 129.1ZM92.2523 117.7C91.4523 117.7 90.7523 118 90.1523 118.6C89.5523 119.2 89.2523 120 89.0523 121H95.2523V120.8C95.1523 119.8 94.9523 119.1 94.4523 118.5C93.9523 118 93.1523 117.7 92.2523 117.7Z" fill="white"/>
  <path d="M104.566 114.9V117.4H99.5664V129H97.7664V117.4H92.7664V114.9H104.566Z" fill="#3B82F6"/>
  <path d="M110.73 125.2L114.03 115H116.03L111.23 129H110.23L105.43 115H107.43L110.73 125.2Z" fill="white"/>
  
  <!-- Define the gradient -->
  <defs>
    <linearGradient id="paint0_linear" x1="100" y1="10" x2="100" y2="190" gradientUnits="userSpaceOnUse">
      <stop offset="0" stop-color="#0A0E1A"/>
      <stop offset="1" stop-color="#151F32"/>
    </linearGradient>
  </defs>
</svg> 